<svg xmlns="http://www.w3.org/2000/svg" viewBox="0 0 32 32">
  <rect width="32" height="32" rx="6" fill="#0a0a0a"/>
  <g transform="translate(4,3.5) scale(0.0136,-0.0136) translate(0,-1760)" fill="#D4715E">
    <path d="M884 1562 c-11 -4 -66 -35 -122 -70 -119 -74 -153 -116 -160 -199 -4 -44 0 -62 27 -112 17 -33 31 -66 31 -73 0 -7 -18 -24 -40 -37 -65 -40 -139 -120 -146 -158 -15 -80 19 -129 104 -152 23 -7 44 -16 47 -21 5 -8 -19 -96 -50 -180 -51 -142 -58 -176 -44 -205 18 -38 65 -64 128 -72 50 -6 55 -4 121 42 68 46 100 53 100 21 0 -23 51 -77 87 -92 18 -8 54 -14 81 -14 51 0 60 5 184 98 50 38 84 97 75 134 -8 33 -33 113 -58 186 -24 69 -63 108 -80 81 -13 -21 -11 -60 6 -78 8 -9 17 -36 21 -60 10 -62 -18 -51 -31 13 -11 50 -26 66 -62 66 -19 0 -23 -5 -23 -34 0 -18 6 -39 14 -45 8 -7 18 -27 21 -44 4 -18 16 -51 27 -75 13 -27 18 -52 14 -68 -9 -33 -24 -22 -32 24 -4 20 -12 44 -19 52 -7 8 -17 38 -21 65 -4 28 -13 55 -19 60 -7 6 -16 20 -20 33 -5 18 2 30 37 63 24 22 53 42 66 45 12 4 22 12 22 19 0 8 8 16 18 19 10 4 35 23 56 45 53 54 58 102 21 176 -36 70 -126 158 -158 153 -33 -5 -33 -35 0 -61 15 -12 40 -35 56 -52 43 -49 82 -135 61 -135 -10 0 -49 44 -73 83 -30 48 -106 117 -131 117 -38 0 -23 -42 35 -103 52 -53 85 -110 85 -145 0 -21 -47 23 -56 52 -4 12 -38 50 -75 87 -38 36 -69 72 -69 81 0 8 14 21 30 28 17 7 30 15 30 19 0 4 16 15 35 25 114 62 138 225 49 333 -21 25 -52 52 -70 59 -34 14 -94 17 -130 6z m164 -113 c23 -29 34 -71 26 -93 -10 -25 -21 -19 -28 15 -3 17 -24 51 -45 77 -22 25 -38 49 -35 54 7 10 59 -23 82 -53z m-102 -34 c33 -34 56 -89 48 -120 -8 -34 -21 -31 -29 5 -7 34 -54 110 -67 110 -4 0 -8 7 -8 15 0 23 28 18 56 -10z m-115 -41 c35 -24 79 -100 79 -137 0 -8 -13 -41 -30 -73 -16 -32 -30 -67 -30 -78 0 -10 41 -59 93 -110 90 -87 107 -115 107 -172 0 -7 -18 -34 -40 -59 -22 -25 -40 -56 -40 -68 0 -19 22 -87 49 -152 77 -184 76 -217 -2 -207 -44 5 -68 35 -91 113 -35 115 -76 156 -130 131 -20 -9 -53 -82 -81 -180 -6 -20 -12 -23 -52 -20 -79 5 -79 17 -1 237 10 30 21 81 25 112 5 56 4 60 -24 87 -17 15 -48 32 -68 37 -81 21 -67 81 37 156 73 53 118 96 118 114 0 7 -16 36 -35 64 -30 43 -35 59 -35 109 0 62 17 97 54 112 36 15 58 11 97 -16z m397 -872 c4 -49 -13 -57 -22 -11 -9 47 -7 61 7 57 6 -3 13 -23 15 -46z"/>
  </g>
</svg>
